/* XPM */
static char * c:\binp\bremacs\main\bremacs\share\emacs\site_lisp\bremacs\splith_xpm[] = {
"24 24 12 1",
" 	c None",
".	c #803400",
"+	c #803300",
"@	c #512100",
"#	c #522100",
"$	c #000000",
"%	c #808080",
"&	c #7F7F7F",
"*	c #552300",
"=	c #562300",
"-	c #532200",
";	c #818181",
"                        ",
"  ....................  ",
"  ++++++++++++++++++++  ",
"  ++++++++++++++++++++  ",
"  @@@@@@@@@@@@@@@@@@@#  ",
"  $$$$$$$$$$$$$$$$$$$$  ",
"  $                  $  ",
"  $ %%%%%%&&&&%%%%%% $  ",
"  $                  $  ",
"  $ %%%%%%%&&&&&&&&% $  ",
"  $                  $  ",
"  $$$$$$$$$$$$$$$$$$$$  ",
"  *******************=  ",
"  ++++++++++++++++++++  ",
"  ###################-  ",
"  $$$$$$$$$$$$$$$$$$$$  ",
"  $                  $  ",
"  $ %%%%%%%%&&&&&&&% $  ",
"  $                  $  ",
"  $ %%%%%;;;;;%%%%%; $  ",
"  $                  $  ",
"  $$$$$$$$$$$$$$$$$$$$  ",
"  $$$$$$$$$$$$$$$$$$$   ",
"                        "};
